<?xml version="1.0" standalone="no"?>
<!DOCTYPE svg PUBLIC "-//W3C//DTD SVG 20010904//EN"
 "http://www.w3.org/TR/2001/REC-SVG-20010904/DTD/svg10.dtd">
<svg version="1.0" xmlns="http://www.w3.org/2000/svg"
 width="104.000000pt" height="104.000000pt" viewBox="0 0 104.000000 104.000000"
 preserveAspectRatio="xMidYMid meet">
<metadata>
Created by potrace 1.11, written by Peter Selinger 2001-2013
</metadata>
<g transform="translate(0.000000,104.000000) scale(0.100000,-0.100000)"
fill="#000000" stroke="none">
<path d="M305 868 c-34 -35 -81 -92 -105 -128 -24 -36 -46 -67 -49 -70 -3 -3
-7 -12 -8 -20 -1 -8 -7 -37 -12 -65 -5 -27 -12 -99 -14 -160 -5 -119 -8 -131
-66 -220 -22 -33 -40 -71 -40 -83 -1 -23 0 -24 81 -19 46 3 96 10 112 16 36
15 74 53 68 71 -3 7 -1 10 4 7 5 -3 10 5 11 16 1 12 5 54 9 93 5 54 3 83 -10
121 -44 131 -42 143 43 306 104 200 94 256 -24 135z"/>
<path d="M628 924 c-9 -8 11 -72 38 -125 13 -26 20 -49 17 -53 -4 -3 -2 -6 4
-6 14 0 80 -127 88 -170 4 -25 -2 -58 -19 -113 -30 -89 -33 -151 -10 -226 23
-78 56 -110 129 -121 33 -6 82 -10 108 -10 45 0 48 1 42 23 -4 12 -22 45 -39
72 -65 100 -68 110 -76 266 -7 127 -11 153 -33 200 -14 29 -23 58 -20 63 3 6
3 8 -2 4 -4 -4 -27 19 -51 50 -94 121 -153 170 -176 146z"/>
<path d="M365 672 c-79 -41 -92 -92 -46 -181 16 -32 27 -62 23 -67 -4 -4 -1
-4 6 0 13 8 69 -41 64 -56 -1 -5 3 -8 9 -8 6 0 27 -13 46 -30 18 -16 39 -30
46 -30 8 0 26 13 42 30 16 17 34 30 41 30 7 0 15 8 18 18 3 9 19 26 35 37 16
10 27 23 25 27 -3 4 4 16 16 28 11 11 18 20 16 20 -2 0 2 19 9 43 10 34 10 49
-1 79 -7 20 -9 40 -6 44 4 4 2 4 -5 1 -6 -4 -17 -1 -25 6 -20 20 -121 16 -145
-5 -24 -22 -32 -22 -54 -2 -28 26 -82 33 -114 16z"/>
</g>
</svg>
